<?xml version="1.0" encoding="UTF-8" standalone="no"?>
<!DOCTYPE svg PUBLIC "-//W3C//DTD SVG 1.1//EN"
 "http://www.w3.org/Graphics/SVG/1.1/DTD/svg11.dtd">
<!-- Generated by graphviz version 2.28.0 (20110509.1545)
 -->
<!-- Title: controllers_diagram Pages: 1 -->
<svg width="724pt" height="746pt"
 viewBox="0.00 0.00 723.94 745.80" xmlns="http://www.w3.org/2000/svg" xmlns:xlink="http://www.w3.org/1999/xlink">
<g id="graph1" class="graph" transform="scale(1 1) rotate(0) translate(4 741.8)">
<title>controllers_diagram</title>
<polygon fill="white" stroke="white" points="-4,5 -4,-741.8 720.938,-741.8 720.938,5 -4,5"/>
<!-- _diagram_info -->
<g id="node1" class="node"><title>_diagram_info</title>
<text text-anchor="start" x="29" y="-132" font-family="Times,serif" font-size="13.00">Controllers diagram</text>
<text text-anchor="start" x="29" y="-116.4" font-family="Times,serif" font-size="13.00">Date: Jun 04 2011 &#45; 19:20</text>
<text text-anchor="start" x="29" y="-100.8" font-family="Times,serif" font-size="13.00">Migration version: 20110520011719</text>
<text text-anchor="start" x="29" y="-85.2" font-family="Times,serif" font-size="13.00">Generated by RailRoady 1.0.2</text>
<text text-anchor="start" x="29" y="-69.6" font-family="Times,serif" font-size="13.00">http://railroady.prestonlee.com</text>
</g>
<!-- ApplicationController -->
<g id="node2" class="node"><title>ApplicationController</title>
<polyline fill="none" stroke="black" points="453,-483.5 637.801,-483.5 "/>
<path fill="none" stroke="black" d="M637.801,-483.5C643.801,-483.5 649.801,-489.5 649.801,-495.5"/>
<polyline fill="none" stroke="black" points="649.801,-495.5 649.801,-687.5 "/>
<path fill="none" stroke="black" d="M649.801,-687.5C649.801,-693.5 643.801,-699.5 637.801,-699.5"/>
<polyline fill="none" stroke="black" points="637.801,-699.5 453,-699.5 "/>
<path fill="none" stroke="black" d="M453,-699.5C447,-699.5 441,-693.5 441,-687.5"/>
<polyline fill="none" stroke="black" points="441,-687.5 441,-495.5 "/>
<path fill="none" stroke="black" d="M441,-495.5C441,-489.5 447,-483.5 453,-483.5"/>
<text text-anchor="middle" x="545.4" y="-681.5" font-family="Times,serif" font-size="14.00">ApplicationController</text>
<polyline fill="none" stroke="black" points="441,-674.7 649.801,-674.7 "/>
<text text-anchor="start" x="449" y="-656.7" font-family="Times,serif" font-size="14.00">_one_time_conditions_valid_48?</text>
<text text-anchor="start" x="449" y="-639.9" font-family="Times,serif" font-size="14.00">_one_time_conditions_valid_50?</text>
<polyline fill="none" stroke="black" points="441,-633.1 649.801,-633.1 "/>
<polyline fill="none" stroke="black" points="441,-609.1 649.801,-609.1 "/>
<text text-anchor="start" x="449" y="-591.1" font-family="Times,serif" font-size="14.00">_layout</text>
<text text-anchor="start" x="449" y="-574.3" font-family="Times,serif" font-size="14.00">_run_process_action_callbacks</text>
<text text-anchor="start" x="449" y="-557.5" font-family="Times,serif" font-size="14.00">logged_in?</text>
<text text-anchor="start" x="449" y="-540.7" font-family="Times,serif" font-size="14.00">logged_in_researcher</text>
<text text-anchor="start" x="449" y="-523.9" font-family="Times,serif" font-size="14.00">login_required_as_any_researcher</text>
<text text-anchor="start" x="449" y="-507.1" font-family="Times,serif" font-size="14.00">login_required_as_moderator</text>
<text text-anchor="start" x="449" y="-490.3" font-family="Times,serif" font-size="14.00">login_required_as_researcher</text>
</g>
<!-- CommentsController -->
<g id="node3" class="node"><title>CommentsController</title>
<polyline fill="none" stroke="black" points="201,-504.5 379.635,-504.5 "/>
<path fill="none" stroke="black" d="M379.635,-504.5C385.635,-504.5 391.635,-510.5 391.635,-516.5"/>
<polyline fill="none" stroke="black" points="391.635,-516.5 391.635,-725.3 "/>
<path fill="none" stroke="black" d="M391.635,-725.3C391.635,-731.3 385.635,-737.3 379.635,-737.3"/>
<polyline fill="none" stroke="black" points="379.635,-737.3 201,-737.3 "/>
<path fill="none" stroke="black" d="M201,-737.3C195,-737.3 189,-731.3 189,-725.3"/>
<polyline fill="none" stroke="black" points="189,-725.3 189,-516.5 "/>
<path fill="none" stroke="black" d="M189,-516.5C189,-510.5 195,-504.5 201,-504.5"/>
<text text-anchor="middle" x="290.317" y="-719.3" font-family="Times,serif" font-size="14.00">CommentsController</text>
<polyline fill="none" stroke="black" points="189,-712.5 391.635,-712.5 "/>
<text text-anchor="start" x="197" y="-694.5" font-family="Times,serif" font-size="14.00">_one_time_conditions_valid_52?</text>
<text text-anchor="start" x="197" y="-677.7" font-family="Times,serif" font-size="14.00">_one_time_conditions_valid_56?</text>
<text text-anchor="start" x="197" y="-660.9" font-family="Times,serif" font-size="14.00">_one_time_conditions_valid_60?</text>
<text text-anchor="start" x="197" y="-644.1" font-family="Times,serif" font-size="14.00">create</text>
<text text-anchor="start" x="197" y="-627.3" font-family="Times,serif" font-size="14.00">destroy</text>
<text text-anchor="start" x="197" y="-610.5" font-family="Times,serif" font-size="14.00">get_comment</text>
<text text-anchor="start" x="197" y="-593.7" font-family="Times,serif" font-size="14.00">get_post_from_comment</text>
<text text-anchor="start" x="197" y="-576.9" font-family="Times,serif" font-size="14.00">must_be_moderator</text>
<polyline fill="none" stroke="black" points="189,-570.1 391.635,-570.1 "/>
<polyline fill="none" stroke="black" points="189,-546.1 391.635,-546.1 "/>
<text text-anchor="start" x="197" y="-528.1" font-family="Times,serif" font-size="14.00">_layout</text>
<text text-anchor="start" x="197" y="-511.3" font-family="Times,serif" font-size="14.00">_run_process_action_callbacks</text>
</g>
<!-- GroupsController -->
<g id="node4" class="node"><title>GroupsController</title>
<polyline fill="none" stroke="black" points="54,-336.5 144.766,-336.5 "/>
<path fill="none" stroke="black" d="M144.766,-336.5C150.766,-336.5 156.766,-342.5 156.766,-348.5"/>
<polyline fill="none" stroke="black" points="156.766,-348.5 156.766,-523.7 "/>
<path fill="none" stroke="black" d="M156.766,-523.7C156.766,-529.7 150.766,-535.7 144.766,-535.7"/>
<polyline fill="none" stroke="black" points="144.766,-535.7 54,-535.7 "/>
<path fill="none" stroke="black" d="M54,-535.7C48,-535.7 42,-529.7 42,-523.7"/>
<polyline fill="none" stroke="black" points="42,-523.7 42,-348.5 "/>
<path fill="none" stroke="black" d="M42,-348.5C42,-342.5 48,-336.5 54,-336.5"/>
<text text-anchor="middle" x="99.3828" y="-517.7" font-family="Times,serif" font-size="14.00">GroupsController</text>
<polyline fill="none" stroke="black" points="42,-510.9 156.766,-510.9 "/>
<text text-anchor="start" x="50" y="-492.9" font-family="Times,serif" font-size="14.00">create</text>
<text text-anchor="start" x="50" y="-476.1" font-family="Times,serif" font-size="14.00">destroy</text>
<text text-anchor="start" x="50" y="-459.3" font-family="Times,serif" font-size="14.00">edit</text>
<text text-anchor="start" x="50" y="-442.5" font-family="Times,serif" font-size="14.00">index</text>
<text text-anchor="start" x="50" y="-425.7" font-family="Times,serif" font-size="14.00">new</text>
<text text-anchor="start" x="50" y="-408.9" font-family="Times,serif" font-size="14.00">show</text>
<text text-anchor="start" x="50" y="-392.1" font-family="Times,serif" font-size="14.00">update</text>
<polyline fill="none" stroke="black" points="42,-385.3 156.766,-385.3 "/>
<polyline fill="none" stroke="black" points="42,-361.3 156.766,-361.3 "/>
<text text-anchor="start" x="50" y="-343.3" font-family="Times,serif" font-size="14.00">_layout</text>
</g>
<!-- HomesController -->
<g id="node5" class="node"><title>HomesController</title>
<polyline fill="none" stroke="black" points="537,-0.5 703.938,-0.5 "/>
<path fill="none" stroke="black" d="M703.938,-0.5C709.938,-0.5 715.938,-6.5 715.938,-12.5"/>
<polyline fill="none" stroke="black" points="715.938,-12.5 715.938,-137.3 "/>
<path fill="none" stroke="black" d="M715.938,-137.3C715.938,-143.3 709.938,-149.3 703.938,-149.3"/>
<polyline fill="none" stroke="black" points="703.938,-149.3 537,-149.3 "/>
<path fill="none" stroke="black" d="M537,-149.3C531,-149.3 525,-143.3 525,-137.3"/>
<polyline fill="none" stroke="black" points="525,-137.3 525,-12.5 "/>
<path fill="none" stroke="black" d="M525,-12.5C525,-6.5 531,-0.5 537,-0.5"/>
<text text-anchor="middle" x="620.469" y="-131.3" font-family="Times,serif" font-size="14.00">HomesController</text>
<polyline fill="none" stroke="black" points="525,-124.5 715.938,-124.5 "/>
<text text-anchor="start" x="533" y="-106.5" font-family="Times,serif" font-size="14.00">about</text>
<text text-anchor="start" x="533" y="-89.7" font-family="Times,serif" font-size="14.00">index</text>
<text text-anchor="start" x="533" y="-72.9" font-family="Times,serif" font-size="14.00">support</text>
<polyline fill="none" stroke="black" points="525,-66.1 715.938,-66.1 "/>
<polyline fill="none" stroke="black" points="525,-42.1 715.938,-42.1 "/>
<text text-anchor="start" x="533" y="-24.1" font-family="Times,serif" font-size="14.00">_layout</text>
<text text-anchor="start" x="533" y="-7.3" font-family="Times,serif" font-size="14.00">_run_process_action_callbacks</text>
</g>
<!-- MarkdownsController -->
<g id="node6" class="node"><title>MarkdownsController</title>
<polyline fill="none" stroke="black" points="12,-630.5 128.428,-630.5 "/>
<path fill="none" stroke="black" d="M128.428,-630.5C134.428,-630.5 140.428,-636.5 140.428,-642.5"/>
<polyline fill="none" stroke="black" points="140.428,-642.5 140.428,-716.9 "/>
<path fill="none" stroke="black" d="M140.428,-716.9C140.428,-722.9 134.428,-728.9 128.428,-728.9"/>
<polyline fill="none" stroke="black" points="128.428,-728.9 12,-728.9 "/>
<path fill="none" stroke="black" d="M12,-728.9C6,-728.9 0,-722.9 0,-716.9"/>
<polyline fill="none" stroke="black" points="0,-716.9 0,-642.5 "/>
<path fill="none" stroke="black" d="M0,-642.5C0,-636.5 6,-630.5 12,-630.5"/>
<text text-anchor="middle" x="70.2139" y="-710.9" font-family="Times,serif" font-size="14.00">MarkdownsController</text>
<polyline fill="none" stroke="black" points="0,-704.1 140.428,-704.1 "/>
<text text-anchor="start" x="8" y="-686.1" font-family="Times,serif" font-size="14.00">preview</text>
<polyline fill="none" stroke="black" points="0,-679.3 140.428,-679.3 "/>
<polyline fill="none" stroke="black" points="0,-655.3 140.428,-655.3 "/>
<text text-anchor="start" x="8" y="-637.3" font-family="Times,serif" font-size="14.00">_layout</text>
</g>
<!-- PostsController -->
<g id="node7" class="node"><title>PostsController</title>
<polyline fill="none" stroke="black" points="453,-189.5 631.635,-189.5 "/>
<path fill="none" stroke="black" d="M631.635,-189.5C637.635,-189.5 643.635,-195.5 643.635,-201.5"/>
<polyline fill="none" stroke="black" points="643.635,-201.5 643.635,-427.1 "/>
<path fill="none" stroke="black" d="M643.635,-427.1C643.635,-433.1 637.635,-439.1 631.635,-439.1"/>
<polyline fill="none" stroke="black" points="631.635,-439.1 453,-439.1 "/>
<path fill="none" stroke="black" d="M453,-439.1C447,-439.1 441,-433.1 441,-427.1"/>
<polyline fill="none" stroke="black" points="441,-427.1 441,-201.5 "/>
<path fill="none" stroke="black" d="M441,-201.5C441,-195.5 447,-189.5 453,-189.5"/>
<text text-anchor="middle" x="542.317" y="-421.1" font-family="Times,serif" font-size="14.00">PostsController</text>
<polyline fill="none" stroke="black" points="441,-414.3 643.635,-414.3 "/>
<text text-anchor="start" x="449" y="-396.3" font-family="Times,serif" font-size="14.00">_one_time_conditions_valid_64?</text>
<text text-anchor="start" x="449" y="-379.5" font-family="Times,serif" font-size="14.00">_one_time_conditions_valid_68?</text>
<text text-anchor="start" x="449" y="-362.7" font-family="Times,serif" font-size="14.00">create</text>
<text text-anchor="start" x="449" y="-345.9" font-family="Times,serif" font-size="14.00">destroy</text>
<text text-anchor="start" x="449" y="-329.1" font-family="Times,serif" font-size="14.00">get_post</text>
<text text-anchor="start" x="449" y="-312.3" font-family="Times,serif" font-size="14.00">index</text>
<text text-anchor="start" x="449" y="-295.5" font-family="Times,serif" font-size="14.00">must_be_moderator</text>
<text text-anchor="start" x="449" y="-278.7" font-family="Times,serif" font-size="14.00">new</text>
<text text-anchor="start" x="449" y="-261.9" font-family="Times,serif" font-size="14.00">show</text>
<polyline fill="none" stroke="black" points="441,-255.1 643.635,-255.1 "/>
<polyline fill="none" stroke="black" points="441,-231.1 643.635,-231.1 "/>
<text text-anchor="start" x="449" y="-213.1" font-family="Times,serif" font-size="14.00">_layout</text>
<text text-anchor="start" x="449" y="-196.3" font-family="Times,serif" font-size="14.00">_run_process_action_callbacks</text>
</g>
<!-- ResearchersController -->
<g id="node8" class="node"><title>ResearchersController</title>
<polyline fill="none" stroke="black" points="201,-189.5 379.635,-189.5 "/>
<path fill="none" stroke="black" d="M379.635,-189.5C385.635,-189.5 391.635,-195.5 391.635,-201.5"/>
<polyline fill="none" stroke="black" points="391.635,-201.5 391.635,-460.7 "/>
<path fill="none" stroke="black" d="M391.635,-460.7C391.635,-466.7 385.635,-472.7 379.635,-472.7"/>
<polyline fill="none" stroke="black" points="379.635,-472.7 201,-472.7 "/>
<path fill="none" stroke="black" d="M201,-472.7C195,-472.7 189,-466.7 189,-460.7"/>
<polyline fill="none" stroke="black" points="189,-460.7 189,-201.5 "/>
<path fill="none" stroke="black" d="M189,-201.5C189,-195.5 195,-189.5 201,-189.5"/>
<text text-anchor="middle" x="290.317" y="-454.7" font-family="Times,serif" font-size="14.00">ResearchersController</text>
<polyline fill="none" stroke="black" points="189,-447.9 391.635,-447.9 "/>
<text text-anchor="start" x="197" y="-429.9" font-family="Times,serif" font-size="14.00">_callback_before_79</text>
<text text-anchor="start" x="197" y="-413.1" font-family="Times,serif" font-size="14.00">_one_time_conditions_valid_72?</text>
<text text-anchor="start" x="197" y="-396.3" font-family="Times,serif" font-size="14.00">_one_time_conditions_valid_75?</text>
<text text-anchor="start" x="197" y="-379.5" font-family="Times,serif" font-size="14.00">_one_time_conditions_valid_80?</text>
<text text-anchor="start" x="197" y="-362.7" font-family="Times,serif" font-size="14.00">account</text>
<text text-anchor="start" x="197" y="-345.9" font-family="Times,serif" font-size="14.00">edit</text>
<text text-anchor="start" x="197" y="-329.1" font-family="Times,serif" font-size="14.00">get_researcher</text>
<text text-anchor="start" x="197" y="-312.3" font-family="Times,serif" font-size="14.00">index</text>
<text text-anchor="start" x="197" y="-295.5" font-family="Times,serif" font-size="14.00">posts</text>
<text text-anchor="start" x="197" y="-278.7" font-family="Times,serif" font-size="14.00">show</text>
<text text-anchor="start" x="197" y="-261.9" font-family="Times,serif" font-size="14.00">update</text>
<polyline fill="none" stroke="black" points="189,-255.1 391.635,-255.1 "/>
<polyline fill="none" stroke="black" points="189,-231.1 391.635,-231.1 "/>
<text text-anchor="start" x="197" y="-213.1" font-family="Times,serif" font-size="14.00">_layout</text>
<text text-anchor="start" x="197" y="-196.3" font-family="Times,serif" font-size="14.00">_run_process_action_callbacks</text>
</g>
<!-- SessionsController -->
<g id="node9" class="node"><title>SessionsController</title>
<polyline fill="none" stroke="black" points="306,-0.5 472.938,-0.5 "/>
<path fill="none" stroke="black" d="M472.938,-0.5C478.938,-0.5 484.938,-6.5 484.938,-12.5"/>
<polyline fill="none" stroke="black" points="484.938,-12.5 484.938,-137.3 "/>
<path fill="none" stroke="black" d="M484.938,-137.3C484.938,-143.3 478.938,-149.3 472.938,-149.3"/>
<polyline fill="none" stroke="black" points="472.938,-149.3 306,-149.3 "/>
<path fill="none" stroke="black" d="M306,-149.3C300,-149.3 294,-143.3 294,-137.3"/>
<polyline fill="none" stroke="black" points="294,-137.3 294,-12.5 "/>
<path fill="none" stroke="black" d="M294,-12.5C294,-6.5 300,-0.5 306,-0.5"/>
<text text-anchor="middle" x="389.469" y="-131.3" font-family="Times,serif" font-size="14.00">SessionsController</text>
<polyline fill="none" stroke="black" points="294,-124.5 484.938,-124.5 "/>
<text text-anchor="start" x="302" y="-106.5" font-family="Times,serif" font-size="14.00">create</text>
<text text-anchor="start" x="302" y="-89.7" font-family="Times,serif" font-size="14.00">destroy</text>
<text text-anchor="start" x="302" y="-72.9" font-family="Times,serif" font-size="14.00">new</text>
<polyline fill="none" stroke="black" points="294,-66.1 484.938,-66.1 "/>
<polyline fill="none" stroke="black" points="294,-42.1 484.938,-42.1 "/>
<text text-anchor="start" x="302" y="-24.1" font-family="Times,serif" font-size="14.00">_layout</text>
<text text-anchor="start" x="302" y="-7.3" font-family="Times,serif" font-size="14.00">_run_process_action_callbacks</text>
</g>
<!-- TextilesController -->
<g id="node10" class="node"><title>TextilesController</title>
<polyline fill="none" stroke="black" points="54,-189.5 147.664,-189.5 "/>
<path fill="none" stroke="black" d="M147.664,-189.5C153.664,-189.5 159.664,-195.5 159.664,-201.5"/>
<polyline fill="none" stroke="black" points="159.664,-201.5 159.664,-275.9 "/>
<path fill="none" stroke="black" d="M159.664,-275.9C159.664,-281.9 153.664,-287.9 147.664,-287.9"/>
<polyline fill="none" stroke="black" points="147.664,-287.9 54,-287.9 "/>
<path fill="none" stroke="black" d="M54,-287.9C48,-287.9 42,-281.9 42,-275.9"/>
<polyline fill="none" stroke="black" points="42,-275.9 42,-201.5 "/>
<path fill="none" stroke="black" d="M42,-201.5C42,-195.5 48,-189.5 54,-189.5"/>
<text text-anchor="middle" x="100.832" y="-269.9" font-family="Times,serif" font-size="14.00">TextilesController</text>
<polyline fill="none" stroke="black" points="42,-263.1 159.664,-263.1 "/>
<text text-anchor="start" x="50" y="-245.1" font-family="Times,serif" font-size="14.00">preview</text>
<polyline fill="none" stroke="black" points="42,-238.3 159.664,-238.3 "/>
<polyline fill="none" stroke="black" points="42,-214.3 159.664,-214.3 "/>
<text text-anchor="start" x="50" y="-196.3" font-family="Times,serif" font-size="14.00">_layout</text>
</g>
</g>
</svg>
