<?xml version="1.0" encoding="UTF-8" standalone="no"?>
<!DOCTYPE svg PUBLIC "-//W3C//DTD SVG 1.1//EN"
 "http://www.w3.org/Graphics/SVG/1.1/DTD/svg11.dtd">
<!-- Generated by graphviz version 2.28.0 (20110509.1545)
 -->
<!-- Title: models_diagram Pages: 1 -->
<svg width="797pt" height="644pt"
 viewBox="0.00 0.00 797.00 644.00" xmlns="http://www.w3.org/2000/svg" xmlns:xlink="http://www.w3.org/1999/xlink">
<g id="graph1" class="graph" transform="scale(1 1) rotate(0) translate(4 640)">
<title>models_diagram</title>
<polygon fill="white" stroke="white" points="-4,5 -4,-640 794,-640 794,5 -4,5"/>
<!-- _diagram_info -->
<g id="node1" class="node"><title>_diagram_info</title>
<text text-anchor="start" x="222.788" y="-578" font-family="Times,serif" font-size="13.00">Models diagram</text>
<text text-anchor="start" x="222.788" y="-562.4" font-family="Times,serif" font-size="13.00">Date: Jun 04 2011 &#45; 19:19</text>
<text text-anchor="start" x="222.788" y="-546.8" font-family="Times,serif" font-size="13.00">Migration version: 20110520011719</text>
<text text-anchor="start" x="222.788" y="-531.2" font-family="Times,serif" font-size="13.00">Generated by RailRoady 1.0.2</text>
<text text-anchor="start" x="222.788" y="-515.6" font-family="Times,serif" font-size="13.00">http://railroady.prestonlee.com</text>
</g>
<!-- Address -->
<g id="node2" class="node"><title>Address</title>
<polyline fill="none" stroke="black" points="451.157,-468.4 578.843,-468.4 "/>
<path fill="none" stroke="black" d="M578.843,-468.4C584.843,-468.4 590.843,-474.4 590.843,-480.4"/>
<polyline fill="none" stroke="black" points="590.843,-480.4 590.843,-623.6 "/>
<path fill="none" stroke="black" d="M590.843,-623.6C590.843,-629.6 584.843,-635.6 578.843,-635.6"/>
<polyline fill="none" stroke="black" points="578.843,-635.6 451.157,-635.6 "/>
<path fill="none" stroke="black" d="M451.157,-635.6C445.157,-635.6 439.157,-629.6 439.157,-623.6"/>
<polyline fill="none" stroke="black" points="439.157,-623.6 439.157,-480.4 "/>
<path fill="none" stroke="black" d="M439.157,-480.4C439.157,-474.4 445.157,-468.4 451.157,-468.4"/>
<text text-anchor="middle" x="515" y="-617.6" font-family="Times,serif" font-size="14.00">Address</text>
<polyline fill="none" stroke="black" points="439.157,-610.8 590.843,-610.8 "/>
<text text-anchor="start" x="447.157" y="-592.8" font-family="Times,serif" font-size="14.00">line1 :string</text>
<text text-anchor="start" x="447.157" y="-576" font-family="Times,serif" font-size="14.00">line2 :string</text>
<text text-anchor="start" x="447.157" y="-559.2" font-family="Times,serif" font-size="14.00">city :string</text>
<text text-anchor="start" x="447.157" y="-542.4" font-family="Times,serif" font-size="14.00">state :string</text>
<text text-anchor="start" x="447.157" y="-525.6" font-family="Times,serif" font-size="14.00">postcode :string</text>
<text text-anchor="start" x="447.157" y="-508.8" font-family="Times,serif" font-size="14.00">addressable_type :string</text>
<text text-anchor="start" x="447.157" y="-492" font-family="Times,serif" font-size="14.00">created_at :datetime</text>
<text text-anchor="start" x="447.157" y="-475.2" font-family="Times,serif" font-size="14.00">updated_at :datetime</text>
</g>
<!-- Comment -->
<g id="node3" class="node"><title>Comment</title>
<polyline fill="none" stroke="black" points="11.4946,-0.4 120.505,-0.4 "/>
<path fill="none" stroke="black" d="M120.505,-0.4C126.505,-0.4 132.505,-6.4 132.505,-12.4"/>
<polyline fill="none" stroke="black" points="132.505,-12.4 132.505,-71.6 "/>
<path fill="none" stroke="black" d="M132.505,-71.6C132.505,-77.6 126.505,-83.6 120.505,-83.6"/>
<polyline fill="none" stroke="black" points="120.505,-83.6 11.4946,-83.6 "/>
<path fill="none" stroke="black" d="M11.4946,-83.6C5.49463,-83.6 -0.505371,-77.6 -0.505371,-71.6"/>
<polyline fill="none" stroke="black" points="-0.505371,-71.6 -0.505371,-12.4 "/>
<path fill="none" stroke="black" d="M-0.505371,-12.4C-0.505371,-6.4 5.49463,-0.4 11.4946,-0.4"/>
<text text-anchor="middle" x="66" y="-65.6" font-family="Times,serif" font-size="14.00">Comment</text>
<polyline fill="none" stroke="black" points="-0.505371,-58.8 132.505,-58.8 "/>
<text text-anchor="start" x="7.49463" y="-40.8" font-family="Times,serif" font-size="14.00">body :text</text>
<text text-anchor="start" x="7.49463" y="-24" font-family="Times,serif" font-size="14.00">created_at :datetime</text>
<text text-anchor="start" x="7.49463" y="-7.2" font-family="Times,serif" font-size="14.00">updated_at :datetime</text>
</g>
<!-- Group -->
<g id="node4" class="node"><title>Group</title>
<polyline fill="none" stroke="black" points="620.495,-510.4 729.505,-510.4 "/>
<path fill="none" stroke="black" d="M729.505,-510.4C735.505,-510.4 741.505,-516.4 741.505,-522.4"/>
<polyline fill="none" stroke="black" points="741.505,-522.4 741.505,-581.6 "/>
<path fill="none" stroke="black" d="M741.505,-581.6C741.505,-587.6 735.505,-593.6 729.505,-593.6"/>
<polyline fill="none" stroke="black" points="729.505,-593.6 620.495,-593.6 "/>
<path fill="none" stroke="black" d="M620.495,-593.6C614.495,-593.6 608.495,-587.6 608.495,-581.6"/>
<polyline fill="none" stroke="black" points="608.495,-581.6 608.495,-522.4 "/>
<path fill="none" stroke="black" d="M608.495,-522.4C608.495,-516.4 614.495,-510.4 620.495,-510.4"/>
<text text-anchor="middle" x="675" y="-575.6" font-family="Times,serif" font-size="14.00">Group</text>
<polyline fill="none" stroke="black" points="608.495,-568.8 741.505,-568.8 "/>
<text text-anchor="start" x="616.495" y="-550.8" font-family="Times,serif" font-size="14.00">name :string</text>
<text text-anchor="start" x="616.495" y="-534" font-family="Times,serif" font-size="14.00">created_at :datetime</text>
<text text-anchor="start" x="616.495" y="-517.2" font-family="Times,serif" font-size="14.00">updated_at :datetime</text>
</g>
<!-- Researcher -->
<g id="node6" class="node"><title>Researcher</title>
<polyline fill="none" stroke="black" points="620.495,-278.8 729.505,-278.8 "/>
<path fill="none" stroke="black" d="M729.505,-278.8C735.505,-278.8 741.505,-284.8 741.505,-290.8"/>
<polyline fill="none" stroke="black" points="741.505,-290.8 741.505,-417.2 "/>
<path fill="none" stroke="black" d="M741.505,-417.2C741.505,-423.2 735.505,-429.2 729.505,-429.2"/>
<polyline fill="none" stroke="black" points="729.505,-429.2 620.495,-429.2 "/>
<path fill="none" stroke="black" d="M620.495,-429.2C614.495,-429.2 608.495,-423.2 608.495,-417.2"/>
<polyline fill="none" stroke="black" points="608.495,-417.2 608.495,-290.8 "/>
<path fill="none" stroke="black" d="M608.495,-290.8C608.495,-284.8 614.495,-278.8 620.495,-278.8"/>
<text text-anchor="middle" x="675" y="-411.2" font-family="Times,serif" font-size="14.00">Researcher</text>
<polyline fill="none" stroke="black" points="608.495,-404.4 741.505,-404.4 "/>
<text text-anchor="start" x="616.495" y="-386.4" font-family="Times,serif" font-size="14.00">name :string</text>
<text text-anchor="start" x="616.495" y="-369.6" font-family="Times,serif" font-size="14.00">title :string</text>
<text text-anchor="start" x="616.495" y="-352.8" font-family="Times,serif" font-size="14.00">email :string</text>
<text text-anchor="start" x="616.495" y="-336" font-family="Times,serif" font-size="14.00">jc_number :string</text>
<text text-anchor="start" x="616.495" y="-319.2" font-family="Times,serif" font-size="14.00">moderator :boolean</text>
<text text-anchor="start" x="616.495" y="-302.4" font-family="Times,serif" font-size="14.00">created_at :datetime</text>
<text text-anchor="start" x="616.495" y="-285.6" font-family="Times,serif" font-size="14.00">updated_at :datetime</text>
</g>
<!-- Group&#45;&gt;Researcher -->
<g id="edge2" class="edge"><title>Group&#45;&gt;Researcher</title>
<path fill="none" stroke="black" d="M675,-500.127C675,-481.554 675,-460.016 675,-439.309"/>
<polygon fill="black" stroke="black" points="675,-500.389 670.5,-510.389 675,-505.389 675,-510.389 675,-510.389 675,-510.389 675,-505.389 679.5,-510.389 675,-500.389 675,-500.389"/>
<polygon fill="black" stroke="black" points="675,-439.228 679.5,-429.228 675,-434.228 675,-429.228 675,-429.228 675,-429.228 675,-434.228 670.5,-429.228 675,-439.228 675,-439.228"/>
</g>
<!-- Post -->
<g id="node5" class="node"><title>Post</title>
<polyline fill="none" stroke="black" points="444.495,-139 553.505,-139 "/>
<path fill="none" stroke="black" d="M553.505,-139C559.505,-139 565.505,-145 565.505,-151"/>
<polyline fill="none" stroke="black" points="565.505,-151 565.505,-227 "/>
<path fill="none" stroke="black" d="M565.505,-227C565.505,-233 559.505,-239 553.505,-239"/>
<polyline fill="none" stroke="black" points="553.505,-239 444.495,-239 "/>
<path fill="none" stroke="black" d="M444.495,-239C438.495,-239 432.495,-233 432.495,-227"/>
<polyline fill="none" stroke="black" points="432.495,-227 432.495,-151 "/>
<path fill="none" stroke="black" d="M432.495,-151C432.495,-145 438.495,-139 444.495,-139"/>
<text text-anchor="middle" x="499" y="-221" font-family="Times,serif" font-size="14.00">Post</text>
<polyline fill="none" stroke="black" points="432.495,-214.2 565.505,-214.2 "/>
<text text-anchor="start" x="440.495" y="-196.2" font-family="Times,serif" font-size="14.00">title :string</text>
<text text-anchor="start" x="440.495" y="-179.4" font-family="Times,serif" font-size="14.00">content :text</text>
<text text-anchor="start" x="440.495" y="-162.6" font-family="Times,serif" font-size="14.00">created_at :datetime</text>
<text text-anchor="start" x="440.495" y="-145.8" font-family="Times,serif" font-size="14.00">updated_at :datetime</text>
</g>
<!-- Post&#45;&gt;Comment -->
<g id="edge4" class="edge"><title>Post&#45;&gt;Comment</title>
<path fill="none" stroke="black" d="M424.591,-171.198C351.277,-153.517 236.802,-122.869 142,-84 141.905,-83.9609 141.809,-83.9217 141.714,-83.8824"/>
<ellipse fill="none" stroke="black" cx="428.548" cy="-172.146" rx="4.00001" ry="4.00001"/>
<polygon fill="black" stroke="black" points="141.94,-83.9806 134.551,-75.8779 137.352,-81.994 132.763,-80.0075 132.763,-80.0075 132.763,-80.0075 137.352,-81.994 130.976,-84.1371 141.94,-83.9806 141.94,-83.9806"/>
</g>
<!-- ActsAsTaggableOn::Tagging -->
<g id="node10" class="node"><title>ActsAsTaggableOn::Tagging</title>
<ellipse fill="none" stroke="black" cx="274" cy="-42" rx="123.097" ry="18"/>
<text text-anchor="middle" x="274" y="-36.4" font-family="Times,serif" font-size="14.00">ActsAsTaggableOn::Tagging</text>
</g>
<!-- Post&#45;&gt;ActsAsTaggableOn::Tagging -->
<g id="edge6" class="edge"><title>Post&#45;&gt;ActsAsTaggableOn::Tagging</title>
<path fill="none" stroke="black" d="M424.211,-181.013C380.379,-173.059 327.188,-156.103 293.559,-120 281.143,-106.671 276.332,-86.6011 274.584,-70.2931"/>
<ellipse fill="none" stroke="black" cx="428.337" cy="-181.72" rx="4.00001" ry="4.00001"/>
<polygon fill="black" stroke="black" points="274.577,-70.2003 278.316,-59.8914 274.203,-65.2143 273.828,-60.2284 273.828,-60.2284 273.828,-60.2284 274.203,-65.2143 269.341,-60.5653 274.577,-70.2003 274.577,-70.2003"/>
<text text-anchor="middle" x="317.721" y="-105.4" font-family="Times,serif" font-size="14.00">taggings</text>
</g>
<!-- Post&#45;&gt;ActsAsTaggableOn::Tagging -->
<g id="edge10" class="edge"><title>Post&#45;&gt;ActsAsTaggableOn::Tagging</title>
<path fill="none" stroke="black" d="M425.414,-146.404C411.027,-137.897 396.159,-128.838 382.455,-120 355.558,-102.654 325.994,-81.5197 304.536,-65.784"/>
<ellipse fill="none" stroke="black" cx="428.982" cy="-148.503" rx="4.00002" ry="4.00002"/>
<polygon fill="black" stroke="black" points="304.496,-65.7547 299.113,-56.2011 300.47,-62.7895 296.444,-59.8244 296.444,-59.8244 296.444,-59.8244 300.47,-62.7895 293.776,-63.4477 304.496,-65.7547 304.496,-65.7547"/>
<text text-anchor="middle" x="417.772" y="-105.4" font-family="Times,serif" font-size="14.00">tag_taggings</text>
</g>
<!-- ActsAsTaggableOn::Tag -->
<g id="node12" class="node"><title>ActsAsTaggableOn::Tag</title>
<ellipse fill="none" stroke="black" cx="522" cy="-42" rx="106.344" ry="18"/>
<text text-anchor="middle" x="522" y="-36.4" font-family="Times,serif" font-size="14.00">ActsAsTaggableOn::Tag</text>
</g>
<!-- Post&#45;&gt;ActsAsTaggableOn::Tag -->
<g id="edge8" class="edge"><title>Post&#45;&gt;ActsAsTaggableOn::Tag</title>
<path fill="none" stroke="black" d="M459.967,-129.211C457.821,-120.115 457.859,-110.816 461.572,-102 467.435,-88.0823 478.362,-75.8131 489.329,-66.1188"/>
<polygon fill="black" stroke="black" points="460.041,-129.443 458.796,-140.338 461.562,-134.206 463.082,-138.969 463.082,-138.969 463.082,-138.969 461.562,-134.206 467.369,-137.6 460.041,-129.443 460.041,-129.443"/>
<polygon fill="black" stroke="black" points="489.563,-65.9242 500.128,-62.9874 493.407,-62.7262 497.25,-59.5282 497.25,-59.5282 497.25,-59.5282 493.407,-62.7262 494.372,-56.069 489.563,-65.9242 489.563,-65.9242"/>
<text text-anchor="middle" x="488.214" y="-105.4" font-family="Times,serif" font-size="14.00">base_tags</text>
</g>
<!-- Post&#45;&gt;ActsAsTaggableOn::Tag -->
<g id="edge12" class="edge"><title>Post&#45;&gt;ActsAsTaggableOn::Tag</title>
<path fill="none" stroke="black" d="M514.43,-128.749C515.004,-125.799 515.533,-122.871 516,-120 518.67,-103.6 520.161,-85.0343 520.989,-70.2428"/>
<polygon fill="black" stroke="black" points="514.374,-129.017 507.922,-137.883 513.35,-133.911 512.326,-138.805 512.326,-138.805 512.326,-138.805 513.35,-133.911 516.731,-139.727 514.374,-129.017 514.374,-129.017"/>
<polygon fill="black" stroke="black" points="520.99,-70.2122 525.976,-60.4455 521.236,-65.2183 521.482,-60.2243 521.482,-60.2243 521.482,-60.2243 521.236,-65.2183 516.987,-60.0031 520.99,-70.2122 520.99,-70.2122"/>
<text text-anchor="middle" x="529.276" y="-105.4" font-family="Times,serif" font-size="14.00">tags</text>
</g>
<!-- Slug -->
<g id="node16" class="node"><title>Slug</title>
<ellipse fill="none" stroke="black" cx="675" cy="-42" rx="28.6197" ry="18"/>
<text text-anchor="middle" x="675" y="-36.4" font-family="Times,serif" font-size="14.00">Slug</text>
</g>
<!-- Post&#45;&gt;Slug -->
<g id="edge14" class="edge"><title>Post&#45;&gt;Slug</title>
<path fill="none" stroke="black" d="M567.269,-133.808C587.367,-118.409 609.016,-101.147 628,-84 635.193,-77.503 642.558,-69.8349 649.399,-62.8985"/>
<ellipse fill="none" stroke="black" cx="563.983" cy="-136.314" rx="4.00002" ry="4.00002"/>
<polygon fill="black" stroke="black" points="649.496,-62.8021 659.759,-58.9389 653.041,-59.2755 656.585,-55.7488 656.585,-55.7488 656.585,-55.7488 653.041,-59.2755 653.411,-52.5588 649.496,-62.8021 649.496,-62.8021"/>
</g>
<!-- Post&#45;&gt;Slug -->
<g id="edge16" class="edge"><title>Post&#45;&gt;Slug</title>
<path fill="none" stroke="black" d="M572.57,-142.599C596.814,-125.154 623.31,-104.494 646,-84 652.135,-78.4584 658.395,-72.0649 663.686,-66.0001"/>
<ellipse fill="none" stroke="black" cx="569.054" cy="-145.108" rx="4.00002" ry="4.00002"/>
<ellipse fill="black" stroke="black" cx="666.44" cy="-62.682" rx="4.00002" ry="4.00002"/>
</g>
<!-- Researcher&#45;&gt;Post -->
<g id="edge24" class="edge"><title>Researcher&#45;&gt;Post</title>
<path fill="none" stroke="black" d="M602.285,-285.656C588.047,-272.469 573.258,-258.773 559.471,-246.005"/>
<ellipse fill="none" stroke="black" cx="605.527" cy="-288.659" rx="4.00002" ry="4.00002"/>
<polygon fill="black" stroke="black" points="559.262,-245.811 554.983,-235.714 555.594,-242.413 551.925,-239.016 551.925,-239.016 551.925,-239.016 555.594,-242.413 548.867,-242.317 559.262,-245.811 559.262,-245.811"/>
</g>
<!-- Researcher&#45;&gt;Slug -->
<g id="edge18" class="edge"><title>Researcher&#45;&gt;Slug</title>
<path fill="none" stroke="black" d="M668.955,-270.541C667.56,-203.966 668.235,-114.339 670.98,-70.0674"/>
<ellipse fill="none" stroke="black" cx="669.05" cy="-274.748" rx="4" ry="4"/>
<polygon fill="black" stroke="black" points="670.981,-70.0539 676.19,-60.4041 671.341,-65.0669 671.702,-60.0799 671.702,-60.0799 671.702,-60.0799 671.341,-65.0669 667.213,-59.7557 670.981,-70.0539 670.981,-70.0539"/>
</g>
<!-- Researcher&#45;&gt;Slug -->
<g id="edge20" class="edge"><title>Researcher&#45;&gt;Slug</title>
<path fill="none" stroke="black" d="M681.045,-270.541C682.461,-202.981 681.745,-111.681 678.896,-68.1318"/>
<ellipse fill="none" stroke="black" cx="680.95" cy="-274.748" rx="4" ry="4"/>
<ellipse fill="black" stroke="black" cx="678.595" cy="-64.0689" rx="4" ry="4"/>
</g>
<!-- Addres -->
<g id="node21" class="node"><title>Addres</title>
<ellipse fill="none" stroke="black" cx="751" cy="-189" rx="38.3923" ry="18"/>
<text text-anchor="middle" x="751" y="-183.4" font-family="Times,serif" font-size="14.00">Addres</text>
</g>
<!-- Researcher&#45;&gt;Addres -->
<g id="edge22" class="edge"><title>Researcher&#45;&gt;Addres</title>
<path fill="none" stroke="black" d="M713.048,-271.396C722.791,-250.5 732.53,-229.613 739.703,-214.229"/>
<ellipse fill="none" stroke="black" cx="711.354" cy="-275.03" rx="4.00002" ry="4.00002"/>
<ellipse fill="black" stroke="black" cx="741.516" cy="-210.341" rx="4.00002" ry="4.00002"/>
</g>
</g>
</svg>
