<?xml version="1.0" encoding="UTF-8" standalone="no"?>
<!DOCTYPE svg PUBLIC "-//W3C//DTD SVG 1.1//EN"
 "http://www.w3.org/Graphics/SVG/1.1/DTD/svg11.dtd">
<!-- Generated by graphviz version 2.28.0 (20110509.1545)
 -->
<!-- Title: models_diagram Pages: 1 -->
<svg width="763pt" height="332pt"
 viewBox="0.00 0.00 763.00 332.00" xmlns="http://www.w3.org/2000/svg" xmlns:xlink="http://www.w3.org/1999/xlink">
<g id="graph1" class="graph" transform="scale(1 1) rotate(0) translate(4 328)">
<title>models_diagram</title>
<polygon fill="white" stroke="white" points="-4,5 -4,-328 760,-328 760,5 -4,5"/>
<!-- _diagram_info -->
<g id="node1" class="node"><title>_diagram_info</title>
<text text-anchor="start" x="285.788" y="-307" font-family="Times,serif" font-size="13.00">Models diagram</text>
<text text-anchor="start" x="285.788" y="-291.4" font-family="Times,serif" font-size="13.00">Date: Jun 04 2011 &#45; 19:20</text>
<text text-anchor="start" x="285.788" y="-275.8" font-family="Times,serif" font-size="13.00">Migration version: 20110520011719</text>
<text text-anchor="start" x="285.788" y="-260.2" font-family="Times,serif" font-size="13.00">Generated by RailRoady 1.0.2</text>
<text text-anchor="start" x="285.788" y="-244.6" font-family="Times,serif" font-size="13.00">http://railroady.prestonlee.com</text>
</g>
<!-- Address -->
<g id="node2" class="node"><title>Address</title>
<ellipse fill="none" stroke="black" cx="545" cy="-281" rx="42.5278" ry="18"/>
<text text-anchor="middle" x="545" y="-275.4" font-family="Times,serif" font-size="14.00">Address</text>
</g>
<!-- Comment -->
<g id="node3" class="node"><title>Comment</title>
<ellipse fill="none" stroke="black" cx="49" cy="-18" rx="49.1903" ry="18"/>
<text text-anchor="middle" x="49" y="-12.4" font-family="Times,serif" font-size="14.00">Comment</text>
</g>
<!-- Group -->
<g id="node4" class="node"><title>Group</title>
<ellipse fill="none" stroke="black" cx="641" cy="-281" rx="35.5667" ry="18"/>
<text text-anchor="middle" x="641" y="-275.4" font-family="Times,serif" font-size="14.00">Group</text>
</g>
<!-- Researcher -->
<g id="node6" class="node"><title>Researcher</title>
<ellipse fill="none" stroke="black" cx="641" cy="-182" rx="53.3911" ry="18"/>
<text text-anchor="middle" x="641" y="-176.4" font-family="Times,serif" font-size="14.00">Researcher</text>
</g>
<!-- Group&#45;&gt;Researcher -->
<g id="edge2" class="edge"><title>Group&#45;&gt;Researcher</title>
<path fill="none" stroke="black" d="M641,-252.327C641,-239.208 641,-223.579 641,-210.484"/>
<polygon fill="black" stroke="black" points="641,-252.658 636.5,-262.658 641,-257.658 641,-262.658 641,-262.658 641,-262.658 641,-257.658 645.5,-262.658 641,-252.658 641,-252.658"/>
<polygon fill="black" stroke="black" points="641,-210.192 645.5,-200.191 641,-205.192 641,-200.192 641,-200.192 641,-200.192 641,-205.192 636.5,-200.192 641,-210.192 641,-210.192"/>
</g>
<!-- Post -->
<g id="node5" class="node"><title>Post</title>
<ellipse fill="none" stroke="black" cx="465" cy="-108" rx="27.5142" ry="18"/>
<text text-anchor="middle" x="465" y="-102.4" font-family="Times,serif" font-size="14.00">Post</text>
</g>
<!-- Post&#45;&gt;Comment -->
<g id="edge4" class="edge"><title>Post&#45;&gt;Comment</title>
<path fill="none" stroke="black" d="M430.288,-102.615C386.594,-96.8405 309.346,-85.7859 244,-72 182.82,-59.0931 168.267,-52.6569 108,-36 104.012,-34.8978 99.8774,-33.7391 95.7318,-32.5663"/>
<ellipse fill="none" stroke="black" cx="434.339" cy="-103.145" rx="4.00001" ry="4.00001"/>
<polygon fill="black" stroke="black" points="95.7211,-32.5633 87.3361,-25.4963 90.9123,-31.1937 86.1035,-29.8242 86.1035,-29.8242 86.1035,-29.8242 90.9123,-31.1937 84.8709,-34.1521 95.7211,-32.5633 95.7211,-32.5633"/>
</g>
<!-- ActsAsTaggableOn::Tagging -->
<g id="node10" class="node"><title>ActsAsTaggableOn::Tagging</title>
<ellipse fill="none" stroke="black" cx="240" cy="-18" rx="123.097" ry="18"/>
<text text-anchor="middle" x="240" y="-12.4" font-family="Times,serif" font-size="14.00">ActsAsTaggableOn::Tagging</text>
</g>
<!-- Post&#45;&gt;ActsAsTaggableOn::Tagging -->
<g id="edge6" class="edge"><title>Post&#45;&gt;ActsAsTaggableOn::Tagging</title>
<path fill="none" stroke="black" d="M429.263,-105.157C377.427,-101.792 284.805,-92.9648 259.559,-72 251.745,-65.5119 247.053,-55.6014 244.235,-46.0986"/>
<ellipse fill="none" stroke="black" cx="433.53" cy="-105.421" rx="4" ry="4"/>
<polygon fill="black" stroke="black" points="244.177,-45.8547 246.231,-35.0829 243.015,-40.9915 241.854,-36.1282 241.854,-36.1282 241.854,-36.1282 243.015,-40.9915 237.477,-37.1736 244.177,-45.8547 244.177,-45.8547"/>
<text text-anchor="middle" x="283.721" y="-57.4" font-family="Times,serif" font-size="14.00">taggings</text>
</g>
<!-- Post&#45;&gt;ActsAsTaggableOn::Tagging -->
<g id="edge10" class="edge"><title>Post&#45;&gt;ActsAsTaggableOn::Tagging</title>
<path fill="none" stroke="black" d="M431.936,-98.4705C408.573,-92.0855 376.698,-82.646 349.455,-72 325.922,-62.8036 300.472,-50.6233 280.04,-40.2586"/>
<ellipse fill="none" stroke="black" cx="435.961" cy="-99.5565" rx="4.00001" ry="4.00001"/>
<polygon fill="black" stroke="black" points="279.929,-40.2021 273.082,-31.6366 275.48,-37.9218 271.03,-35.6414 271.03,-35.6414 271.03,-35.6414 275.48,-37.9218 268.978,-39.6462 279.929,-40.2021 279.929,-40.2021"/>
<text text-anchor="middle" x="385.772" y="-57.4" font-family="Times,serif" font-size="14.00">tag_taggings</text>
</g>
<!-- ActsAsTaggableOn::Tag -->
<g id="node12" class="node"><title>ActsAsTaggableOn::Tag</title>
<ellipse fill="none" stroke="black" cx="488" cy="-18" rx="106.344" ry="18"/>
<text text-anchor="middle" x="488" y="-12.4" font-family="Times,serif" font-size="14.00">ActsAsTaggableOn::Tag</text>
</g>
<!-- Post&#45;&gt;ActsAsTaggableOn::Tag -->
<g id="edge8" class="edge"><title>Post&#45;&gt;ActsAsTaggableOn::Tag</title>
<path fill="none" stroke="black" d="M438.793,-87.9094C428.61,-78.0676 420.827,-65.7011 427.572,-54 430.52,-48.8861 434.532,-44.4514 439.097,-40.6225"/>
<polygon fill="black" stroke="black" points="438.916,-88.0167 443.502,-97.9776 442.687,-91.3003 446.457,-94.5839 446.457,-94.5839 446.457,-94.5839 442.687,-91.3003 449.413,-91.1903 438.916,-88.0167 438.916,-88.0167"/>
<polygon fill="black" stroke="black" points="439.117,-40.6086 449.854,-38.3807 443.164,-37.6732 447.212,-34.7378 447.212,-34.7378 447.212,-34.7378 443.164,-37.6732 444.57,-31.0949 439.117,-40.6086 439.117,-40.6086"/>
<text text-anchor="middle" x="454.214" y="-57.4" font-family="Times,serif" font-size="14.00">base_tags</text>
</g>
<!-- Post&#45;&gt;ActsAsTaggableOn::Tag -->
<g id="edge12" class="edge"><title>Post&#45;&gt;ActsAsTaggableOn::Tag</title>
<path fill="none" stroke="black" d="M478.56,-81.5913C479.885,-78.4232 481.077,-75.1789 482,-72 484.359,-63.871 485.798,-54.7901 486.674,-46.4734"/>
<polygon fill="black" stroke="black" points="478.532,-81.6535 470.243,-88.8328 476.428,-86.1897 474.325,-90.7258 474.325,-90.7258 474.325,-90.7258 476.428,-86.1897 478.408,-92.6187 478.532,-81.6535 478.532,-81.6535"/>
<polygon fill="black" stroke="black" points="486.677,-46.4422 491.993,-36.8513 487.093,-41.4595 487.509,-36.4769 487.509,-36.4769 487.509,-36.4769 487.093,-41.4595 483.024,-36.1025 486.677,-46.4422 486.677,-46.4422"/>
<text text-anchor="middle" x="496.276" y="-57.4" font-family="Times,serif" font-size="14.00">tags</text>
</g>
<!-- Slug -->
<g id="node16" class="node"><title>Slug</title>
<ellipse fill="none" stroke="black" cx="641" cy="-18" rx="28.6197" ry="18"/>
<text text-anchor="middle" x="641" y="-12.4" font-family="Times,serif" font-size="14.00">Slug</text>
</g>
<!-- Post&#45;&gt;Slug -->
<g id="edge14" class="edge"><title>Post&#45;&gt;Slug</title>
<path fill="none" stroke="black" d="M491.645,-91.0041C522.938,-74.3791 574.532,-48.627 608.232,-32.8463"/>
<ellipse fill="none" stroke="black" cx="487.812" cy="-93.0587" rx="4.00002" ry="4.00002"/>
<polygon fill="black" stroke="black" points="608.578,-32.686 619.543,-32.566 613.115,-30.5844 617.652,-28.4828 617.652,-28.4828 617.652,-28.4828 613.115,-30.5844 615.76,-24.3996 608.578,-32.686 608.578,-32.686"/>
</g>
<!-- Post&#45;&gt;Slug -->
<g id="edge16" class="edge"><title>Post&#45;&gt;Slug</title>
<path fill="none" stroke="black" d="M495.199,-94.3537C528.718,-78.742 582.013,-52.1703 614.136,-35.1121"/>
<ellipse fill="none" stroke="black" cx="491.473" cy="-96.0728" rx="4.00002" ry="4.00002"/>
<ellipse fill="black" stroke="black" cx="617.907" cy="-33.0923" rx="4.00002" ry="4.00002"/>
</g>
<!-- Researcher&#45;&gt;Post -->
<g id="edge24" class="edge"><title>Researcher&#45;&gt;Post</title>
<path fill="none" stroke="black" d="M600.629,-164.484C569.181,-151.62 526.12,-134.004 497.021,-122.1"/>
<ellipse fill="none" stroke="black" cx="604.606" cy="-166.112" rx="4.00001" ry="4.00001"/>
<polygon fill="black" stroke="black" points="496.981,-122.083 489.429,-114.132 492.353,-120.19 487.725,-118.297 487.725,-118.297 487.725,-118.297 492.353,-120.19 486.021,-122.462 496.981,-122.083 496.981,-122.083"/>
</g>
<!-- Researcher&#45;&gt;Slug -->
<g id="edge18" class="edge"><title>Researcher&#45;&gt;Slug</title>
<path fill="none" stroke="black" d="M635.933,-155.629C633.732,-125.848 633.69,-76.6565 635.807,-46.1329"/>
<ellipse fill="none" stroke="black" cx="636.313" cy="-159.984" rx="4" ry="4"/>
<polygon fill="black" stroke="black" points="635.838,-45.7666 641.169,-36.1835 636.261,-40.7845 636.685,-35.8025 636.685,-35.8025 636.685,-35.8025 636.261,-40.7845 632.201,-35.4214 635.838,-45.7666 635.838,-45.7666"/>
</g>
<!-- Researcher&#45;&gt;Slug -->
<g id="edge20" class="edge"><title>Researcher&#45;&gt;Slug</title>
<path fill="none" stroke="black" d="M646.067,-155.629C648.316,-125.194 648.311,-74.4897 646.051,-44.1521"/>
<ellipse fill="none" stroke="black" cx="645.687" cy="-159.984" rx="4" ry="4"/>
<ellipse fill="black" stroke="black" cx="645.666" cy="-39.787" rx="4" ry="4"/>
</g>
<!-- Addres -->
<g id="node21" class="node"><title>Addres</title>
<ellipse fill="none" stroke="black" cx="717" cy="-108" rx="38.3923" ry="18"/>
<text text-anchor="middle" x="717" y="-102.4" font-family="Times,serif" font-size="14.00">Addres</text>
</g>
<!-- Researcher&#45;&gt;Addres -->
<g id="edge22" class="edge"><title>Researcher&#45;&gt;Addres</title>
<path fill="none" stroke="black" d="M664.166,-159.053C673.823,-149.904 684.996,-139.32 694.573,-130.247"/>
<ellipse fill="none" stroke="black" cx="661.149" cy="-161.911" rx="4.00002" ry="4.00002"/>
<ellipse fill="black" stroke="black" cx="697.7" cy="-127.284" rx="4.00002" ry="4.00002"/>
</g>
</g>
</svg>
